<?xml version="1.0" standalone="no"?>
<!DOCTYPE svg PUBLIC "-//W3C//DTD SVG 20010904//EN"
 "http://www.w3.org/TR/2001/REC-SVG-20010904/DTD/svg10.dtd">
<svg version="1.0" xmlns="http://www.w3.org/2000/svg"
 width="512.000000pt" height="512.000000pt" viewBox="0 0 512.000000 512.000000"
 preserveAspectRatio="xMidYMid meet">
<metadata>
Created by potrace 1.14, written by Peter Selinger 2001-2017
</metadata>
<g transform="translate(0.000000,512.000000) scale(0.100000,-0.100000)"
fill="#000000" stroke="none">
<path d="M780 5105 c-25 -7 -56 -17 -70 -21 -112 -34 -338 -253 -473 -457 -87
-131 -184 -364 -203 -484 -3 -21 -10 -58 -16 -83 -14 -58 -19 -345 -7 -435 18
-145 22 -167 54 -295 142 -561 513 -1182 1073 -1797 575 -630 1289 -1147 1912
-1381 142 -54 344 -107 500 -132 110 -18 379 -21 481 -5 379 58 672 222 952
535 161 180 180 456 43 649 -47 66 -639 655 -699 694 -46 30 -107 57 -172 74
-40 11 -171 11 -220 1 -27 -6 -83 -25 -122 -43 -62 -29 -94 -55 -223 -180
-177 -173 -222 -200 -335 -199 -90 0 -127 13 -228 81 -99 67 -333 245 -402
305 -421 369 -687 656 -963 1044 -97 136 -115 180 -116 274 0 118 26 164 186
326 181 183 228 264 244 421 13 124 -32 270 -112 369 -68 84 -631 638 -679
669 -85 54 -159 77 -265 80 -59 2 -112 -1 -140 -10z m260 -218 c45 -21 113
-85 372 -344 362 -363 361 -362 362 -503 1 -120 -22 -161 -179 -320 -168 -169
-205 -221 -235 -334 -14 -52 -19 -191 -8 -241 24 -113 93 -224 312 -505 212
-272 565 -639 806 -837 14 -12 46 -39 72 -61 26 -22 75 -62 110 -88 35 -27 68
-52 73 -56 129 -102 292 -205 359 -228 130 -43 276 -32 404 31 53 26 99 64
217 178 183 178 214 196 335 195 140 -1 140 0 501 -361 356 -354 370 -373 375
-496 5 -120 -23 -176 -150 -302 -124 -124 -147 -143 -244 -206 -140 -92 -319
-164 -453 -184 -24 -4 -64 -10 -89 -15 -46 -9 -324 -6 -370 3 -14 3 -47 8 -75
12 -109 14 -389 97 -515 153 -441 193 -851 464 -1298 857 -104 92 -392 381
-502 504 -285 318 -584 750 -751 1084 -104 207 -204 487 -233 652 -3 17 -10
55 -16 85 -16 78 -22 343 -10 420 49 325 154 533 390 771 145 147 185 168 315
164 51 -1 85 -9 125 -28z"/>
<path d="M2680 4789 c-47 -19 -88 -59 -104 -101 -15 -39 -16 -125 -14 -844 l3
-800 27 -42 c56 -84 -51 -77 1239 -77 l1145 0 43 28 c27 18 50 44 62 70 18 40
19 78 19 835 0 691 -2 797 -15 829 -21 50 -42 72 -90 94 -38 18 -94 19 -1165
18 -715 0 -1134 -4 -1150 -10z m2255 -929 l0 -775 -1105 0 -1105 0 -3 765 c-1
421 0 771 3 778 3 10 230 12 1107 10 l1103 -3 0 -775z"/>
<path d="M3250 4163 c-223 -78 -324 -291 -231 -488 124 -263 494 -269 622 -10
48 98 49 238 3 312 -8 12 -14 25 -14 28 0 3 90 5 200 5 110 0 200 -3 200 -8 0
-4 -6 -16 -13 -27 -25 -37 -40 -114 -35 -178 25 -306 398 -434 606 -208 13 15
37 53 53 86 83 174 8 378 -170 464 l-56 26 -575 2 c-316 1 -582 -1 -590 -4z
m151 -168 c79 -35 114 -88 114 -176 0 -57 -4 -71 -28 -102 -35 -47 -65 -67
-117 -78 -108 -24 -214 54 -225 167 -13 136 132 244 256 189z m1004 -4 c174
-78 130 -338 -59 -355 -83 -8 -152 32 -187 109 -72 157 89 318 246 246z"/>
</g>
</svg>
